<?xml version="1.0"?>
<svg xmlns="http://www.w3.org/2000/svg" xmlns:xlink="http://www.w3.org/1999/xlink" xmlns:svgjs="http://svgjs.com/svgjs" version="1.1" width="512" height="512" x="0" y="0" viewBox="0 0 449.17 449.17" style="enable-background:new 0 0 512 512" xml:space="preserve" class=""><g>
<g xmlns="http://www.w3.org/2000/svg">
	<circle cx="187.097" cy="211.949" r="14.537" fill="#ffffff" data-original="#000000" style="" class=""/>
	<path d="M187.097,140.128c-39.603,0-71.821,32.22-71.821,71.823c0,39.605,32.218,71.833,71.821,71.833   c39.605,0,71.829-32.236,71.829-71.833C258.926,172.354,226.702,140.128,187.097,140.128z M187.097,266.444   c-30.098,0-54.489-24.394-54.489-54.493c0-30.098,24.391-54.489,54.489-54.489c30.092,0,54.485,24.391,54.485,54.489   C241.582,242.051,217.188,266.444,187.097,266.444z" fill="#ffffff" data-original="#000000" style="" class=""/>
	<path d="M447.656,302.047c-11.746,2.62-30.89-14.828-39.405-37.289c-8.52-22.454-15.064-75.57-57.01-66.245   c-14.84,3.312-24.453,7.221-30.681,10.87c-8.296,4.877-9.734,20.077-7.65,29.471l13.577,61.001   c2.092,9.386-2.368,14.855-10.279,14.519c-4.677-0.196-9.438,0.201-14.222,1.259c-29.647,6.608-48.338,35.986-41.729,65.626   c6.608,29.643,35.986,48.329,65.617,41.725c29.655-6.608,48.338-35.982,41.737-65.629c-0.176-0.762-0.377-1.503-0.577-2.257   c-0.345-1.242-2.32-9.842-4.399-19.239c-3.896-17.621-9.983-45.02-13.898-62.637c-2.092-9.381,5.065-15.641,8.532-6.676   c3.803,9.902,6.624,26.172,19.251,45.477C399.646,347.354,459.401,299.441,447.656,302.047z" fill="#ffffff" data-original="#000000" style="" class=""/>
	<path d="M298.575,300.299c3.804-0.857,7.683-1.378,11.574-1.595l-12.556-56.456c-2.974-13.329-1.442-36.716,14.996-46.388   c8.768-5.152,20.622-9.414,35.249-12.666c4.356-0.98,8.656-1.475,12.739-1.475c4.112,0,7.851,0.533,11.386,1.368   C358.082,93.46,280.614,24.861,187.097,24.861C83.764,24.861,0,108.624,0,211.952s83.764,187.107,187.097,187.107   c20.671,0,40.533-3.406,59.118-9.598c-0.478-1.579-0.93-3.174-1.291-4.801C236.452,346.621,260.518,308.763,298.575,300.299z    M101.574,211.952c0-47.147,38.363-85.515,85.522-85.515c47.155,0,85.519,38.367,85.519,85.515   c0,47.147-38.371,85.527-85.519,85.527C139.95,297.479,101.574,259.099,101.574,211.952z" fill="#ffffff" data-original="#000000" style="" class=""/>
</g>
<g xmlns="http://www.w3.org/2000/svg">
</g>
<g xmlns="http://www.w3.org/2000/svg">
</g>
<g xmlns="http://www.w3.org/2000/svg">
</g>
<g xmlns="http://www.w3.org/2000/svg">
</g>
<g xmlns="http://www.w3.org/2000/svg">
</g>
<g xmlns="http://www.w3.org/2000/svg">
</g>
<g xmlns="http://www.w3.org/2000/svg">
</g>
<g xmlns="http://www.w3.org/2000/svg">
</g>
<g xmlns="http://www.w3.org/2000/svg">
</g>
<g xmlns="http://www.w3.org/2000/svg">
</g>
<g xmlns="http://www.w3.org/2000/svg">
</g>
<g xmlns="http://www.w3.org/2000/svg">
</g>
<g xmlns="http://www.w3.org/2000/svg">
</g>
<g xmlns="http://www.w3.org/2000/svg">
</g>
<g xmlns="http://www.w3.org/2000/svg">
</g>
</g></svg>
